<svg xmlns:vectornator="http://vectornator.io" xmlns="http://www.w3.org/2000/svg" viewBox="0 0 1984.5 1842.75" fill-rule="evenodd" clip-rule="evenodd" stroke-linecap="round" stroke-linejoin="round"><g vectornator:layerName="Layer 4" opacity=".971722"><path d="M1810.28 766.712l-420.36-432.479c-29.29-30.131-81.52-26.863-116.67 7.3l-91.53 88.966c-35.15 34.162-39.9 86.282-10.61 116.413l420.36 432.479c29.29 30.129 81.53 26.859 116.67-7.3l91.53-88.966c35.15-34.162 39.9-86.282 10.61-116.413z"/><path d="M1839.33 789.448l-61.84-55.027c-38.65-34.395-96.22-32.934-128.57 3.263l-315.04 352.426c-32.36 36.2-27.26 93.42 11.4 127.82l61.84 55.02c38.65 34.4 96.22 32.94 128.57-3.26l315.04-352.423c32.36-36.197 27.26-93.423-11.4-127.819z"/><path d="M1483.38 1205.21l-74.27 44.25c-30.42 18.12-40.39 57.47-22.27 87.89l243.28 408.37c18.12 30.42 57.47 40.39 87.89 22.27l74.27-44.25c30.42-18.12 40.39-57.47 22.27-87.89l-243.29-408.37c-18.12-30.42-57.47-40.39-87.88-22.27z"/><path d="M1423.14 1086.75l-83.01 16.58c-33.99 6.8-56.42 44.2-50.09 83.55l85.04 528.29c6.34 39.35 39.03 65.74 73.03 58.95l83.01-16.58c34-6.79 56.42-44.2 50.09-83.55l-85.04-528.29c-6.33-39.35-39.03-65.74-73.03-58.95z"/><path stroke="#fff" stroke-width="28.52" d="M1265.93 275.939c0-116.101-91.17-210.2176-203.64-210.2176-112.461 0-203.631 94.1166-203.631 210.2176 0 116.1 91.17 210.218 203.631 210.218 112.47 0 203.64-94.118 203.64-210.218z" stroke-linecap="butt"/><path stroke="#fff" stroke-width="10.48" d="M1286.09 860.949l-73.49 179.571c-11.76 28.73 11.7 65.46 52.39 82.03h0c40.69 16.58 83.21 6.74 94.97-21.99l73.49-179.571c11.76-28.727-11.7-65.455-52.39-82.035h0c-40.69-16.579-83.21-6.732-94.97 21.995z" stroke-linecap="butt"/><path d="M1298.81 467.978l-12.46 426.876c-.87 29.916 31.62 54.377 72.57 54.635 40.96.259 74.86-23.783 75.74-53.699l12.46-426.875c.87-29.916-31.62-54.378-72.57-54.636-40.96-.259-74.86 23.783-75.74 53.699z"/><path stroke="#fff" stroke-width="10.49" d="M1306.5 440.896l-216.6 341.005c-15.18 23.898-.67 63.624 32.41 88.731h0c33.07 25.107 72.19 26.087 87.37 2.189l216.6-341.005c15.18-23.898.67-63.624-32.41-88.731h0c-33.07-25.107-72.19-26.087-87.37-2.189z" stroke-linecap="butt"/><path d="M1147.58 781.246l-240.236 24.343c-31.692 3.212-56.321 34.946-55.01 70.881 1.311 35.936 28.066 62.463 59.758 59.252l240.238-24.343c31.69-3.212 56.32-34.946 55.01-70.882-1.31-35.935-28.07-62.462-59.76-59.251z"/><g><path d="M374.153 1173.14h-87.147c-29.928 0-54.189 24.82-54.189 55.43v228.27c0 30.61 24.261 55.42 54.189 55.42h87.147c29.928 0 54.189-24.81 54.189-55.42v-228.27c0-30.61-24.261-55.43-54.189-55.43z"/><path d="M389.624 1412.59c-20.996 0-38.017 24.53-38.017 54.78v243.88c0 30.25 17.021 54.78 38.017 54.78 20.996 0 38.017-24.53 38.017-54.78v-243.88c0-30.25-17.021-54.78-38.017-54.78zM270.854 1412.59c-20.997 0-38.017 24.53-38.017 54.78v243.88c0 30.25 17.02 54.78 38.017 54.78 20.996 0 38.017-24.53 38.017-54.78v-243.88c0-30.25-17.021-54.78-38.017-54.78zM525.285 854.925c-19.649-7.402-46.458 15.483-59.88 51.115l-108.187 287.2c-13.422 35.64-8.375 70.52 11.274 77.92 19.648 7.4 46.457-15.48 59.879-51.11l108.187-287.208c13.422-35.631 8.375-70.516-11.273-77.917zM277.049 1180.46c-19.379-8.08-45.179 9.57-57.626 39.42l-100.324 240.59c-12.447 29.85-6.827 60.6 12.552 68.68 19.379 8.08 45.179-9.57 57.625-39.42l100.325-240.59c12.446-29.85 6.826-60.6-12.552-68.68z"/><path stroke="#fff" stroke-width="18.28" d="M392.182 1092.63c0-57.61-46.572-104.309-104.023-104.309-57.45 0-104.022 46.699-104.022 104.309 0 57.6 46.572 104.3 104.022 104.3 57.451 0 104.023-46.7 104.023-104.3z" stroke-linecap="butt"/><path d="M736.234 766.171H544.656c-21.564 0-39.045 17.481-39.045 39.045v74.965c0 21.564 17.481 39.044 39.045 39.044h191.578c21.563 0 39.044-17.48 39.044-39.044v-74.965c0-21.564-17.481-39.045-39.044-39.045z"/><path stroke="#fff" stroke-width="18.93" d="M736.234 766.171H544.656c-21.564 0-39.045 17.481-39.045 39.045v74.965c0 21.564 17.481 39.044 39.045 39.044h191.578c21.563 0 39.044-17.48 39.044-39.044v-74.965c0-21.564-17.481-39.045-39.044-39.045z" stroke-linecap="butt"/><path d="M722.805 791.18h-161.53c-4.908 0-8.888 3.979-8.888 8.888v83.992c0 4.909 3.98 8.888 8.888 8.888h161.53c4.909 0 8.888-3.979 8.888-8.888v-83.992c0-4.909-3.979-8.888-8.888-8.888z" fill="#fff"/></g></g></svg>