<svg xmlns:vectornator="http://vectornator.io" xmlns="http://www.w3.org/2000/svg" viewBox="0 0 3118.5 2126.25" fill-rule="evenodd" clip-rule="evenodd" stroke-linecap="round" stroke-linejoin="round"><g vectornator:layerName="Layer 2"><path stroke="#000" stroke-width=".1" d="M3003.72 527.474c-102.74 50.596-155.94 311.887-320.8 326.985l-517.27 330.191c-36.38 30.52-88.93 24.43-117.39-13.6h0c-28.46-38.04-6.52-73.59 29.85-104.11l274.33-262.818-476.51 288.958c-43.26 29.65-102.37 18.63-132.03-24.63h0c-29.65-43.26-18.62-102.373 24.64-132.028l459.44-292.944-570.21 294.447c-46.21 24.816-103.78 7.476-128.6-38.73h0c-24.81-46.206-7.47-103.781 38.73-128.596l576.61-266.569-494.26 156.188c-50.01 15.803-103.37-11.927-119.17-61.938h0c-15.8-50.01 11.93-103.363 61.94-119.167l615.67-201.594-246.29-37.927c-52.25-4.445-91.02-50.413-86.57-102.672h0c4.44-52.2596 50.41-91.0213 102.67-86.5766l424.23 17.7353c386.46-8.6286 323.62 37.1443 402.29 55.7823M1012.39 657.953l528.53 1014.477c28.95 55.56 7.37 124.06-48.18 153.01l-472.22 246.02c-55.563 28.95-124.068 7.37-153.013-48.19L338.978 1008.79c-28.946-55.556-7.371-124.06 48.188-153.006l472.219-246.019c55.56-28.946 124.064-7.371 153.005 48.188z"/><path stroke="#000" stroke-width="60.25" d="M935.65 755.54l444.25 852.7-472.354 246.09-444.244-852.7L935.65 755.54z" fill="#fff"/><path stroke="#fff" stroke-width="24.81" d="M155.491 1855.77c-133.1672-167 72.825-601.79 72.825-601.79 13.161-32.68 49.988-50.15 83.095-40.73 33.107 9.43 62.494 45.77 49.333 78.45 0 0-88.823 184.17 16.656 193.29 45.36 3.91 344.817-187.3 344.817-187.3 27.123-13.32 62.46-6.33 78.927 15.61h0c16.467 21.93 7.829 50.51-19.294 63.83 0 0-241.482 138.35-215.598 151.51 25.884 13.16 319.134-98.87 319.134-98.87 25.409-10.39 54.425 1.79 64.808 27.2h0c10.383 25.41-1.799 54.43-27.208 64.81 0 0-289.25 107.06-300.467 133.37-11.218 26.3 255.597-28.13 255.597-28.13 26.92-5.36 53.09 12.11 58.451 39.03h0c5.362 26.92-12.115 53.09-39.035 58.45l-52.41 10.44s-240.092 46.58-256.75 62.96c-16.658 16.37 190.119 2.55 190.119 2.55 27.319-2.67 51.627 17.31 54.293 44.63h0c2.666 27.32-17.319 51.63-44.639 54.3 0 0-502.799 119.23-632.654-43.61z"/><path stroke="#000" stroke-width="60" d="M1120.67 1840.4c2.32-41.91 39.38-73.95 82.79-71.55 43.4 2.4 76.71 38.32 74.4 80.23-2.32 41.92-39.38 73.95-82.79 71.55-43.4-2.4-76.71-38.32-74.4-80.23z" fill="#fff"/></g></svg>